<svg version="1.1" id="Layer_1" xmlns="http://www.w3.org/2000/svg" xmlns:xlink="http://www.w3.org/1999/xlink" x="0px" y="0px"
	 width="100%" viewBox="0 0 1024 1008" enable-background="new 0 0 1024 1008" xml:space="preserve">
<path fill="#000000" opacity="1.000000" stroke="none" 
	d="
M1.000000,912.468628 
	C2.141299,914.000977 1.850812,916.207520 1.866958,918.354492 
	C1.972205,932.350159 1.697990,946.359680 2.242615,960.337585 
	C2.701128,972.105408 6.269928,983.631409 5.279356,995.574524 
	C4.935918,999.715332 5.122893,1003.900024 5.033802,1008.532349 
	C3.672469,1009.000000 2.344937,1009.000000 1.000000,1009.000000 
	C1.000000,976.979126 1.000000,944.958191 1.000000,912.468628 
z"/>
<path fill="#000000" opacity="1.000000" stroke="none" 
	d="
M462.502197,78.470413 
	C479.860321,91.668938 492.927277,107.762321 501.024994,127.750046 
	C504.151428,135.467026 507.689514,143.029358 510.507568,150.853928 
	C511.896454,154.710373 513.895386,155.838608 517.816772,155.737015 
	C550.847351,154.881454 583.121887,160.414612 615.186584,167.593750 
	C624.852417,169.757889 633.625183,174.004120 642.507935,178.324570 
	C669.856140,191.626434 694.356934,208.909454 717.186279,228.872574 
	C735.248535,244.667130 750.238831,263.130341 765.064758,281.789612 
	C793.067078,317.032166 809.464600,357.234985 816.489563,401.527649 
	C819.509949,420.570953 822.852295,439.571503 824.940369,458.738281 
	C826.740723,475.263916 827.836853,491.865570 829.305603,508.428192 
	C830.818115,525.484680 832.549622,542.523010 833.910950,559.591187 
	C834.903381,572.034119 835.920654,584.505554 836.103699,596.976379 
	C836.563171,628.286255 839.413147,659.470764 840.560059,690.747253 
	C841.511902,716.702087 842.514099,742.656555 843.469116,768.613098 
	C844.418762,794.420715 845.291016,820.221008 845.240540,846.044189 
	C845.232910,849.935425 846.826233,850.825134 850.335571,850.758057 
	C859.498291,850.583069 868.666748,850.732300 877.832275,850.668457 
	C881.530334,850.642700 885.153748,851.145203 888.725647,851.961609 
	C900.693115,854.697205 904.999634,860.319031 905.374817,872.655334 
	C906.083130,895.950684 907.059509,919.237915 907.770752,942.533142 
	C907.891846,946.499939 907.693420,950.584900 906.872437,954.451782 
	C904.331726,966.418091 894.427307,973.895020 881.285767,972.617432 
	C856.509094,970.208679 831.662598,970.972168 806.878845,970.758789 
	C780.098083,970.528259 753.297607,972.588989 726.505737,973.650940 
	C723.509888,973.769653 720.514282,973.992554 717.518311,973.998718 
	C660.189148,974.116638 602.853149,974.792480 545.532837,974.129333 
	C496.564941,973.562805 447.628174,970.761414 398.631073,971.325989 
	C386.988159,971.460144 375.322479,972.599792 363.758026,970.339172 
	C360.170441,969.637756 356.546783,968.967590 353.073212,967.862976 
	C339.323547,963.490601 332.580750,954.151733 331.778076,938.060486 
	C330.973450,921.930420 330.467133,905.785461 329.829071,889.647034 
	C329.625458,884.496704 329.577332,879.364624 328.910400,874.210327 
	C327.438477,862.834656 332.468018,855.838562 343.531372,852.634033 
	C356.192139,848.966858 369.151428,848.735413 382.156708,849.098511 
	C397.637360,849.530823 413.113037,850.542786 428.592072,850.568298 
	C520.585571,850.720154 612.579529,850.625366 704.573120,850.765015 
	C709.425049,850.772339 710.809814,849.290283 710.788574,844.516418 
	C710.680054,820.189636 710.432007,795.848328 711.116638,771.537048 
	C711.942627,742.207031 711.231201,712.884521 711.634277,683.563416 
	C712.028381,654.894653 711.257324,626.234314 710.461182,597.597290 
	C709.610718,567.001404 708.089966,536.400146 704.892395,505.917572 
	C702.949036,487.391968 702.027893,468.737000 699.469727,450.303619 
	C696.267395,427.229645 692.075867,404.165894 683.211975,382.513794 
	C674.822083,362.019226 660.025879,345.793579 645.032227,329.776764 
	C617.354248,300.210022 582.319153,286.883667 543.104126,282.584076 
	C535.439209,281.743683 527.630554,281.992310 520.147949,282.730469 
	C519.280945,285.625793 521.000488,286.488556 522.292847,287.350525 
	C559.571655,312.214386 582.200989,348.097076 598.892029,388.577423 
	C610.649597,417.093018 617.714905,446.690063 621.498291,477.259186 
	C624.275513,499.698273 627.030029,522.139343 629.017151,544.651917 
	C630.813538,565.004089 626.213867,583.133423 608.069336,595.483459 
	C600.054199,600.938904 590.992493,602.995972 581.545105,603.081360 
	C560.390137,603.272705 539.231934,603.123291 518.075073,603.098145 
	C507.576111,603.085632 497.074463,603.169556 486.579803,602.942017 
	C482.835480,602.860901 480.897095,604.139282 479.608246,607.723572 
	C473.663788,624.255798 466.376465,640.029236 454.624268,653.486511 
	C440.434479,669.734985 422.411346,679.623047 402.249756,686.032166 
	C370.074707,696.260254 337.449951,699.221375 305.171448,687.578979 
	C272.194244,675.684692 246.218872,654.927307 230.693329,622.608398 
	C228.529480,618.104065 226.116486,613.709839 224.160156,609.119141 
	C222.944458,606.266418 221.306061,604.966675 218.140549,605.106750 
	C202.833954,605.783875 187.440216,605.533447 172.228317,607.088440 
	C142.167419,610.161377 125.785988,588.728088 122.765633,570.740295 
	C120.475433,557.100952 121.681335,543.618713 122.954239,530.076050 
	C124.525215,513.362122 125.997963,496.631805 128.712830,480.053009 
	C135.931366,435.971954 145.782333,392.792206 170.992203,354.747467 
	C185.259827,333.215851 203.576736,315.643799 223.827148,299.948059 
	C226.993088,297.494202 227.994720,294.895508 227.942474,291.063110 
	C227.649536,269.575134 227.013367,248.054611 228.833344,226.618759 
	C231.683167,193.053040 235.637787,159.451767 250.089050,128.618698 
	C263.830383,99.300369 284.253723,74.981949 314.383301,61.317097 
	C340.989563,49.250187 369.257996,45.783619 398.366608,50.401108 
	C422.104187,54.166592 443.155914,63.875225 462.502197,78.470413 
M492.499939,569.724121 
	C499.332550,569.748962 506.171631,569.978149 512.996582,569.761353 
	C535.968811,569.031677 558.934265,571.324585 581.906128,569.808960 
	C590.982605,569.210205 595.104248,565.303833 595.851440,556.161926 
	C596.040710,553.846130 595.984314,551.504150 595.937988,549.176270 
	C595.695801,537.013306 593.906189,524.985291 592.634949,512.916809 
	C590.684448,494.399658 588.142151,475.955627 585.146484,457.575745 
	C581.478516,435.070129 573.906372,413.748871 564.987915,392.915527 
	C554.733398,368.961212 540.817688,347.312866 522.070496,329.029388 
	C514.164185,321.318604 504.905548,315.307312 495.647675,309.362640 
	C490.581024,306.109283 486.885254,301.815216 486.823547,295.675598 
	C486.672913,280.683167 486.724030,265.681427 487.081390,250.692688 
	C487.871124,217.567215 489.125305,184.666229 476.013641,152.840363 
	C466.710205,130.258163 454.576172,110.872055 433.194794,98.137192 
	C408.605133,83.491440 382.404724,77.822327 354.113953,83.546494 
	C342.010986,85.995346 329.770172,88.555550 319.475830,95.754013 
	C300.617615,108.940918 285.952484,126.056549 277.733673,147.571732 
	C266.898621,175.935684 262.897247,205.845520 261.393982,236.028259 
	C260.449097,255.000702 260.979034,274.013977 261.225769,293.010803 
	C261.478088,312.438171 261.607330,312.683655 246.109222,324.139221 
	C208.804428,351.713440 184.025009,387.571747 172.349472,432.627319 
	C165.194702,460.237427 159.907761,488.146698 157.514801,516.526367 
	C156.249512,531.532532 153.413620,546.476440 155.215912,561.719360 
	C156.397507,571.712769 158.514221,574.155090 168.696594,573.815918 
	C194.819214,572.945618 220.933899,571.515686 247.062424,571.204224 
	C328.537445,570.232971 410.027100,571.379272 492.499939,569.724121 
M733.586731,459.035065 
	C736.747192,487.471710 739.338562,515.975525 741.015991,544.522461 
	C742.744507,573.938171 743.824463,603.420288 744.135437,632.884521 
	C744.631409,679.877991 744.540100,726.883179 744.129944,773.878418 
	C743.922241,797.679260 745.175232,821.499084 743.449768,845.288208 
	C743.226013,848.373047 743.983521,850.797119 748.062622,850.781494 
	C768.228333,850.704285 788.394714,850.766174 808.560730,850.834595 
	C811.609070,850.844971 812.585266,849.582642 812.414001,846.547180 
	C811.061829,822.587646 812.247192,798.576416 810.801086,774.602905 
	C809.307312,749.841003 809.090332,725.019409 808.055115,700.229187 
	C806.443420,661.633240 803.396301,623.108765 802.584473,584.473816 
	C802.364502,574.006592 801.243958,563.550659 800.331726,553.107483 
	C798.869629,536.371765 797.185730,519.655396 795.691711,502.922302 
	C794.537415,489.995056 793.939758,477.004333 792.359131,464.132172 
	C790.151184,446.151123 787.028137,428.283905 784.709534,410.314697 
	C780.658569,378.919067 769.859009,349.815430 753.789307,322.859161 
	C741.653076,302.501068 726.202576,284.328339 709.668030,267.417267 
	C685.766541,242.971558 658.623413,222.694962 627.632446,207.703629 
	C619.142639,203.596832 610.631287,200.167175 601.435852,198.353104 
	C595.072937,197.097824 588.704407,195.864868 582.320068,194.724808 
	C563.298828,191.328140 544.226807,188.507095 524.805298,188.908005 
	C520.889160,188.988846 518.844604,189.840729 519.345581,194.253403 
	C521.212769,210.698090 520.217163,227.215179 520.174255,243.696793 
	C520.161133,248.738190 521.830750,250.113754 526.493042,249.652100 
	C541.912537,248.125259 557.039490,250.320602 572.013000,253.762421 
	C602.447876,260.758179 630.916687,272.115784 654.439331,293.316315 
	C676.581848,313.272980 696.987000,335.010590 709.985107,362.160767 
	C724.447266,392.368927 729.625427,425.160858 733.586731,459.035065 
M577.500000,883.954895 
	C540.169678,883.938782 502.837799,884.129883 465.509583,883.843628 
	C433.192383,883.595703 400.878845,882.832886 368.565216,882.217773 
	C365.001404,882.149963 362.971649,882.823242 363.073547,887.096497 
	C363.430786,902.080627 363.285797,917.075867 364.355499,932.042480 
	C364.600800,935.474976 365.750092,937.355896 369.583405,937.960449 
	C380.879913,939.742004 392.194672,938.438416 403.479797,938.511597 
	C441.131439,938.755676 478.765717,939.017151 516.408813,940.419800 
	C544.865112,941.480164 573.367432,942.202393 601.868225,941.690491 
	C635.854126,941.080078 669.843750,940.384705 703.833923,940.847778 
	C726.347107,941.154480 748.772522,939.560303 771.225464,938.556641 
	C803.705200,937.104858 836.177429,937.452881 868.646179,938.648560 
	C873.057434,938.810974 874.799377,937.968323 874.784729,933.051697 
	C874.741333,918.542603 873.290588,904.117249 872.849060,889.643677 
	C872.715149,885.256653 872.464844,882.363770 866.916748,884.098145 
	C865.243591,884.621155 863.275391,884.219788 861.442505,884.209534 
	C797.787720,883.854370 734.131470,884.342468 670.475708,883.525696 
	C639.824036,883.132385 609.158997,883.775330 577.500000,883.954895 
M401.512817,603.402161 
	C354.143341,604.544128 306.753357,603.900879 259.399567,604.388062 
	C259.165375,606.835632 260.307312,608.158325 261.022156,609.615417 
	C272.729523,633.480530 292.658356,648.026306 316.850433,656.682129 
	C340.238556,665.050354 364.115265,662.703491 387.572906,655.969727 
	C402.909943,651.567017 417.426117,645.442383 428.431396,633.100769 
	C436.032379,624.576782 441.921478,615.145264 445.489868,603.400757 
	C430.708435,603.400757 416.608490,603.400757 401.512817,603.402161 
z"/>
<path fill="#000000" opacity="1.000000" stroke="none" 
	d="
M490.275879,395.542267 
	C501.231964,399.207275 508.196259,407.272034 515.283142,415.252441 
	C530.168762,432.014709 536.998108,452.478180 541.695557,473.734528 
	C543.876831,483.604950 544.418396,493.847839 544.151550,504.017700 
	C543.920837,512.813354 537.163818,519.845093 528.899353,520.290161 
	C519.874878,520.776001 512.995239,515.094666 511.428619,505.961639 
	C510.213715,498.879303 511.094971,491.681580 509.909637,484.566132 
	C505.965393,460.889740 497.525055,439.785217 477.544617,424.781830 
	C471.084808,419.931152 469.074371,412.027924 471.966919,405.174500 
	C474.871429,398.292725 481.773651,394.555511 490.275879,395.542267 
z"/>
</svg>